<svg xmlns="http://www.w3.org/2000/svg" viewBox="-100 100 700 300"><g id="freepik--background-complete--inject-37"><rect x="414.91" y="121.6" width="68.91" height="71.83" style="fill:#e0e0e0"></rect><rect x="410.24" y="121.6" width="68.91" height="71.83" style="fill:#fafafa"></rect><path d="M479.17,193.45H410.22V121.58h68.95Zm-68.91,0h68.87V121.62H410.26Z" style="fill:#e0e0e0"></path><rect x="419.51" y="131.26" width="50.38" height="52.52" style="fill:#fff"></rect><path d="M419.51,184.12a8,8,0,0,1-1.25,1.45c-.8.85-1.93,2-3.2,3.24s-2.43,2.36-3.29,3.15a8.18,8.18,0,0,1-1.46,1.22,7.83,7.83,0,0,1,1.24-1.44c.8-.85,1.94-2,3.21-3.26s2.44-2.36,3.3-3.15A7.84,7.84,0,0,1,419.51,184.12Z" style="fill:#e0e0e0"></path><path d="M469.89,184a8.65,8.65,0,0,1,1.44,1.25c.85.8,2,1.93,3.25,3.2s2.36,2.43,3.15,3.29a7.32,7.32,0,0,1,1.21,1.46A8.83,8.83,0,0,1,477.5,192c-.85-.81-2-1.94-3.25-3.21s-2.37-2.44-3.16-3.3A7.48,7.48,0,0,1,469.89,184Z" style="fill:#e0e0e0"></path><path d="M469.75,131.4A8.17,8.17,0,0,1,471,130c.81-.85,1.94-2,3.2-3.25s2.44-2.36,3.3-3.15a8,8,0,0,1,1.45-1.21,8.4,8.4,0,0,1-1.23,1.44c-.81.85-1.94,2-3.21,3.25s-2.44,2.37-3.3,3.16A8.4,8.4,0,0,1,469.75,131.4Z" style="fill:#e0e0e0"></path><path d="M419.37,131.52a7.66,7.66,0,0,1-1.45-1.24c-.85-.8-2-1.93-3.24-3.2s-2.37-2.43-3.15-3.29a8.62,8.62,0,0,1-1.22-1.46,7.83,7.83,0,0,1,1.44,1.24c.85.8,2,1.94,3.25,3.21s2.37,2.44,3.16,3.29A8.4,8.4,0,0,1,419.37,131.52Z" style="fill:#e0e0e0"></path><path d="M469.75,183.77a1,1,0,0,1,0-.25c0-.18,0-.42,0-.74,0-.65,0-1.6,0-2.83,0-2.49,0-6.11-.05-10.7,0-9.2,0-22.31-.1-38l.2.19-50.24,0h0l.22-.22c0,19.27,0,37.3,0,52.51l-.19-.19,36.37.1,10.22,0,2.71,0h0l-2.67,0-10.17.05-36.5.09h-.2v-.19c0-15.21,0-33.24,0-52.51V131h.23l50.24,0h.19v.2c0,15.74-.07,28.88-.1,38.11,0,4.58,0,8.18,0,10.66,0,1.21,0,2.15,0,2.8,0,.3,0,.54,0,.71A1.66,1.66,0,0,1,469.75,183.77Z" style="fill:#e0e0e0"></path><path d="M444.59,161l-7,.09-1.3,3.14-3.59.05,6.56-14.67,3.46,0,7,14.49-3.68.05Zm-1.14-2.55L441,152.9l-2.33,5.62Z" style="fill:#e0e0e0"></path><path d="M457.85,159l.07,5.14-1.52,0,0-1.13a3.33,3.33,0,0,1-2.89,1.26c-2,0-3.28-1-3.3-2.46s.89-2.5,3.52-2.54l2.54,0V159c0-1.3-.81-2-2.4-2a4.55,4.55,0,0,0-2.79.95l-.68-1.15a6,6,0,0,1,3.64-1.14C456.44,155.59,457.82,156.7,457.85,159Zm-1.57,2.56V160.4l-2.48,0c-1.58,0-2,.62-2,1.34s.75,1.37,2,1.36A2.58,2.58,0,0,0,456.28,161.59Z" style="fill:#e0e0e0"></path><rect x="417.59" y="208.56" width="56.57" height="58.97" style="fill:#e0e0e0"></rect><rect x="413.76" y="208.56" width="56.57" height="58.97" style="fill:#fafafa"></rect><path d="M470.35,267.55H413.74v-59h56.61Zm-56.57,0h56.53V208.57H413.78Z" style="fill:#e0e0e0"></path><rect x="421.37" y="216.48" width="41.36" height="43.12" style="fill:#fff"></rect><path d="M421.37,259.89a6.67,6.67,0,0,1-1,1.18c-.67.7-1.59,1.64-2.63,2.67s-2,1.94-2.71,2.59a6.71,6.71,0,0,1-1.19,1,6.58,6.58,0,0,1,1-1.18c.66-.7,1.6-1.64,2.64-2.67s2-1.94,2.71-2.59A5.85,5.85,0,0,1,421.37,259.89Z" style="fill:#e0e0e0"></path><path d="M462.73,259.78a6.67,6.67,0,0,1,1.18,1c.7.66,1.64,1.59,2.67,2.63s1.94,2,2.59,2.7a6.52,6.52,0,0,1,1,1.2,7.64,7.64,0,0,1-1.18-1c-.7-.66-1.64-1.59-2.67-2.63s-1.94-2-2.59-2.71A6.18,6.18,0,0,1,462.73,259.78Z" style="fill:#e0e0e0"></path><path d="M462.61,216.6a6.91,6.91,0,0,1,1-1.19c.67-.69,1.59-1.64,2.63-2.66s2-1.94,2.71-2.59a6.18,6.18,0,0,1,1.19-1,6.58,6.58,0,0,1-1,1.18c-.66.69-1.59,1.64-2.64,2.67s-2,1.94-2.71,2.59A5.85,5.85,0,0,1,462.61,216.6Z" style="fill:#e0e0e0"></path><path d="M421.25,216.71a6.52,6.52,0,0,1-1.18-1c-.7-.66-1.64-1.58-2.67-2.62s-1.94-2-2.59-2.71a6.71,6.71,0,0,1-1-1.19,6.58,6.58,0,0,1,1.18,1c.7.66,1.64,1.59,2.67,2.64s1.94,2,2.59,2.71A5.85,5.85,0,0,1,421.25,216.71Z" style="fill:#e0e0e0"></path><path d="M462.61,259.6v-.21c0-.15,0-.34,0-.6,0-.54,0-1.32,0-2.33,0-2,0-5,0-8.79,0-7.55-.05-18.3-.09-31.19l.16.16-41.24,0h0l.18-.19c0,15.83,0,30.63,0,43.12l-.15-.16,29.86.08,8.39,0,2.22,0h0l-2.19,0-8.36,0-30,.08h-.16v-.16c0-12.49,0-27.29,0-43.12v-.18h.19l41.24,0h.16v.16c0,12.93-.06,23.72-.08,31.3,0,3.75,0,6.71,0,8.75,0,1,0,1.76,0,2.29,0,.25,0,.45,0,.59S462.62,259.6,462.61,259.6Z" style="fill:#e0e0e0"></path><path d="M445.16,240.16c0,2.07-1.66,3.29-4.92,3.34l-6.43.08-.16-12,6.07-.08c3.11,0,4.73,1.19,4.75,3.05a2.84,2.84,0,0,1-1.62,2.65A3,3,0,0,1,445.16,240.16Zm-8.62-6.5,0,2.82,2.86,0c1.41,0,2.16-.51,2.15-1.45s-.78-1.39-2.18-1.37Zm5.73,6.25c0-1-.82-1.48-2.31-1.46l-3.36.05,0,3,3.35-.05C441.49,241.39,442.28,240.94,442.27,239.91Z" style="fill:#e0e0e0"></path><path d="M454.62,240a3.46,3.46,0,0,1-3.62,3.62,3.14,3.14,0,0,1-2.61-1.15l0,1.1-1.26,0L447,233.8l1.31,0,.05,3.85a3.15,3.15,0,0,1,2.52-1.15A3.45,3.45,0,0,1,454.62,240Zm-1.33,0a2.45,2.45,0,1,0-2.42,2.49A2.34,2.34,0,0,0,453.29,240Z" style="fill:#e0e0e0"></path><rect x="103.36" y="98.31" width="291.71" height="208.34" style="fill:#e0e0e0"></rect><rect x="110.29" y="106.63" width="275.76" height="192.01" style="fill:#f5f5f5"></rect><rect x="93.86" y="306.65" width="317.24" height="8.29" style="fill:#ebebeb"></rect><path d="M103.46,98.5c2.76,2.45,5.39,5,7.9,7.74" style="fill:#ebebeb"></path><path d="M111.36,106.24a40.91,40.91,0,0,1-4-3.78,40.74,40.74,0,0,1-3.86-4,23.05,23.05,0,0,1,4.23,3.59A22.93,22.93,0,0,1,111.36,106.24Z" style="fill:#ebebeb"></path><path d="M386.27,107.24l8.82-8.55" style="fill:#ebebeb"></path><path d="M395.08,98.69a35.78,35.78,0,0,1-4.22,4.46,35.47,35.47,0,0,1-4.59,4.09,36.72,36.72,0,0,1,4.22-4.46A36.42,36.42,0,0,1,395.08,98.69Z" style="fill:#ebebeb"></path><path d="M386.76,298.6c3,2.71,8.93,8,8.31,8" style="fill:#ebebeb"></path><path d="M395.07,306.65a55.54,55.54,0,0,0-4.17-3.94,34.77,34.77,0,0,1-4.14-4.11,29.64,29.64,0,0,1,4.49,3.73c1.19,1.09,2.23,2.12,2.94,2.9a10,10,0,0,1,.8,1,1.37,1.37,0,0,1,.16.33C395.18,306.67,395.05,306.68,395.07,306.65Z" style="fill:#ebebeb"></path><rect x="217.07" y="303.52" width="30.24" height="3.29" style="fill:#fafafa"></rect><path d="M124.35,268.53v38.25H190.1Zm10.09,15.4,27.33,16.18H134.44Z" style="fill:#ebebeb"></path><path d="M130.66,272.2a6.63,6.63,0,0,1-1.15,2.36,7,7,0,0,1-1.6,2.08,6.68,6.68,0,0,1,1.16-2.36C129.83,273.06,130.54,272.12,130.66,272.2Z" style="fill:#e0e0e0"></path><path d="M140.42,277.81a6.42,6.42,0,0,1-1.15,2.3c-.75,1.19-1.46,2.09-1.58,2a6.49,6.49,0,0,1,1.14-2.29C139.59,278.64,140.3,277.73,140.42,277.81Z" style="fill:#e0e0e0"></path><path d="M150.17,283.42a6.44,6.44,0,0,1-1.37,2.16c-.88,1.11-1.68,1.93-1.79,1.84a6.48,6.48,0,0,1,1.38-2.16C149.26,284.16,150.06,283.33,150.17,283.42Z" style="fill:#e0e0e0"></path><path d="M159.75,289.25c.12.09-.5,1.06-1.37,2.17s-1.68,1.92-1.79,1.83a6.68,6.68,0,0,1,1.38-2.16C158.84,290,159.64,289.17,159.75,289.25Z" style="fill:#e0e0e0"></path><path d="M169.77,295a6.78,6.78,0,0,1-1.27,2.3c-.81,1.2-1.57,2.1-1.69,2a6.85,6.85,0,0,1,1.26-2.3C168.89,295.81,169.65,294.91,169.77,295Z" style="fill:#e0e0e0"></path><path d="M180.17,301a6,6,0,0,1-1.13,2.19c-.74,1.13-1.44,2-1.56,1.91a5.88,5.88,0,0,1,1.13-2.19C179.35,301.8,180.05,301,180.17,301Z" style="fill:#e0e0e0"></path><path d="M133.71,274c.12.08-.09.63-.47,1.24s-.78,1.05-.91,1,.09-.63.47-1.24S133.58,273.89,133.71,274Z" style="fill:#e0e0e0"></path><path d="M136.9,275.75c.13.08-.08.64-.46,1.25s-.79,1-.91,1,.09-.63.47-1.24S136.78,275.68,136.9,275.75Z" style="fill:#e0e0e0"></path><path d="M144,279.93c.12.08-.09.64-.47,1.25s-.78,1-.9,1,.08-.63.46-1.24S143.89,279.86,144,279.93Z" style="fill:#e0e0e0"></path><path d="M147.21,281.72c.13.07-.08.63-.46,1.24s-.78,1-.91,1,.09-.63.47-1.24S147.09,281.64,147.21,281.72Z" style="fill:#e0e0e0"></path><path d="M153.64,285.7c.12.08-.08.63-.46,1.24s-.79,1.05-.91,1,.09-.63.46-1.24S153.52,285.63,153.64,285.7Z" style="fill:#e0e0e0"></path><path d="M156.69,287.49c.12.07-.08.63-.46,1.24s-.79,1-.91,1,.09-.64.47-1.25S156.57,287.41,156.69,287.49Z" style="fill:#e0e0e0"></path><path d="M163.28,291.29c.12.07-.09.63-.47,1.24s-.78,1-.91,1,.09-.64.47-1.25S163.15,291.21,163.28,291.29Z" style="fill:#e0e0e0"></path><path d="M166.81,293.37c.12.08-.08.63-.46,1.24s-.79,1.05-.91,1,.09-.63.46-1.24S166.69,293.29,166.81,293.37Z" style="fill:#e0e0e0"></path><path d="M173.17,297.09c.12.08-.09.64-.46,1.25s-.79,1-.91,1,.08-.63.46-1.24S173.05,297,173.17,297.09Z" style="fill:#e0e0e0"></path><path d="M176.84,299.2c.12.07-.08.63-.46,1.24s-.79,1-.91,1,.09-.64.46-1.25S176.72,299.12,176.84,299.2Z" style="fill:#e0e0e0"></path><path d="M441.92,381.32c5.14-2.65,11.2-3,16.9-2.05,3.07.51,6.27,1.42,8.36,3.73s2.48,6.36.08,8.34c-1.42,1.18-3.41,1.36-5.26,1.33-4.47-.05-9.43-.84-13,1.85-2,1.54-3.4,4.09-5.83,4.84a5.76,5.76,0,0,1-6.34-2.81,9.87,9.87,0,0,1-.71-7.27A11.1,11.1,0,0,1,441.92,381.32Z" style="fill:#ebebeb"></path><path d="M430.13,358.58c3.15,4.49,9.26,3,12.09.26s4-6.71,5.13-10.5c2.49-8.66,5-17.74,3.15-26.56a14.83,14.83,0,0,0-3.39-7.22,7.7,7.7,0,0,0-7.31-2.43c-3.08.81-5,3.83-6.38,6.7A63.43,63.43,0,0,0,427.16,346c0,4.38.5,9,3,12.58" style="fill:#ebebeb"></path><path d="M421.5,365c3.41-4,4.06-10,2.54-15s-5-9.39-8.91-12.92a48,48,0,0,0-15.95-9.41,17.06,17.06,0,0,0-7.17-1.22,7.52,7.52,0,0,0-6,3.64c-1.68,3.21-.07,7.09,1.67,10.26a121.11,121.11,0,0,0,10.48,15.95c3.14,4.05,6.73,8,11.52,9.87s9.76,1.62,12.29-1.7" style="fill:#ebebeb"></path><path d="M429.92,426.33a9.75,9.75,0,0,0,.28-2c.15-1.48.33-3.35.55-5.57a81.1,81.1,0,0,1,1.25-8.17,62.55,62.55,0,0,1,3-9.64,35.54,35.54,0,0,1,4.92-8.72,18.48,18.48,0,0,1,6.23-5.18,17.18,17.18,0,0,1,5.24-1.63,9.84,9.84,0,0,0,2-.3,9.94,9.94,0,0,0-2.06,0,16.06,16.06,0,0,0-5.47,1.42,18.53,18.53,0,0,0-6.57,5.22,34.83,34.83,0,0,0-5.1,8.9,58.69,58.69,0,0,0-2.95,9.81,69.81,69.81,0,0,0-1.09,8.27c-.17,2.36-.24,4.28-.27,5.6A9.4,9.4,0,0,0,429.92,426.33Z" style="fill:#e0e0e0"></path><path d="M430.3,422.05a3.92,3.92,0,0,0,.06-.95c0-.71,0-1.61,0-2.71,0-2.35,0-5.75.12-9.95.21-8.4.93-17.44,2.33-30.18,1.32-12,3.1-25.94,5-35,.4-2.07.81-3.92,1.19-5.55s.67-3,1-4.17l.64-2.63a4,4,0,0,0,.16-.93,3.92,3.92,0,0,0-.33.89c-.2.68-.46,1.54-.78,2.59s-.71,2.52-1.12,4.14-.87,3.47-1.31,5.53A308.23,308.23,0,0,0,432,375.61c-1.4,12.77-2,24.4-2.08,32.82-.05,4.21,0,7.62.14,10,.07,1.1.13,2,.17,2.71A5.38,5.38,0,0,0,430.3,422.05Z" style="fill:#e0e0e0"></path><path d="M430.36,399.62a17.52,17.52,0,0,0,0-2.83,74.64,74.64,0,0,0-.87-7.66A100.15,100.15,0,0,0,427,378a90.74,90.74,0,0,0-4.67-13.22,70.33,70.33,0,0,0-13.71-21.35,37,37,0,0,0-3.23-3c-.49-.42-.93-.83-1.38-1.16l-1.25-.87a17.16,17.16,0,0,0-2.38-1.52c-.13.18,3.38,2.25,7.81,7a74.33,74.33,0,0,1,13.37,21.28,103.16,103.16,0,0,1,4.69,13.09,113.66,113.66,0,0,1,2.66,11.06c.58,3.18.92,5.79,1.12,7.59A18,18,0,0,0,430.36,399.62Z" style="fill:#e0e0e0"></path><polygon points="408.68 439.18 410.93 469.97 450.48 469.97 452.73 439.18 408.68 439.18" style="fill:#e0e0e0"></polygon><rect x="404.86" y="427.05" width="52.59" height="12.14" style="fill:#e0e0e0"></rect><polygon points="404.86 468.8 404.86 472.16 407.33 472.16 456.58 472.16 456.58 468.8 404.86 468.8" style="fill:#ebebeb"></polygon><polygon points="409.75 478.08 407.33 472.16 454.7 472.16 451.87 478.08 409.75 478.08" style="fill:#e0e0e0"></polygon><path d="M452,449.25a1.93,1.93,0,0,1-.19.28c-.15.21-.35.47-.59.78l-2.3,2.95-.1.13-.1-.13-5.67-7.83h.33l-5.57,7.89-.18.25-.19-.24-6.61-7.86h.38l-.37.46-5.91,7.41-.19.25-.19-.26L419,445.43l.32,0c-2.75,3.13-5.08,5.78-6.86,7.82l-.13.14-.09-.16-2.15-3.61-.55-1a2,2,0,0,1-.17-.34s.09.09.23.3l.61.93,2.26,3.54h-.22l6.76-7.92.17-.2.16.21,5.62,7.86-.38,0,5.9-7.42.36-.45.19-.24.19.23,6.6,7.88-.37,0,5.62-7.86.17-.23.16.23,5.54,7.92h-.2l2.4-2.87.64-.74Q452,449.24,452,449.25Z" style="fill:#f5f5f5"></path><path d="M453.28,439c0,.14-9.91.25-22.13.25S409,439.12,409,439s9.91-.25,22.14-.25S453.28,438.84,453.28,439Z" style="fill:#f5f5f5"></path><path d="M455.28,472.49c0,.14-10.77.25-24.06.25s-24.05-.11-24.05-.25,10.77-.24,24.05-.24S455.28,472.36,455.28,472.49Z" style="fill:#f5f5f5"></path><path d="M130.63,49.1s8.9,41,14.72,40.78C152.87,89.55,178.19,55,178.19,55S134.84,49.76,130.63,49.1Z" style="fill:#f5f5f5"></path><path d="M182.9,55.61S196,95.77,201.79,95.07c7.46-.91,29.13-37.23,29.13-37.23S187.17,55.94,182.9,55.61Z" style="fill:#ebebeb"></path><path d="M235.61,57.82s17.25,38.95,22.93,37.8c7.34-1.48,25.16-39.31,25.16-39.31S239.9,57.81,235.61,57.82Z" style="fill:#f5f5f5"></path><path d="M285.89,56.35s19.87,38,25.47,36.57c7.22-1.85,22.45-40.51,22.45-40.51S290.17,56.13,285.89,56.35Z" style="fill:#ebebeb"></path><path d="M336.75,51.28s24.33,36,29.73,34.07c7-2.49,17.5-42.27,17.5-42.27S341,50.68,336.75,51.28Z" style="fill:#f5f5f5"></path><path d="M386.71,42.4s27.42,34.28,32.64,32c6.74-2.93,13.76-43.27,13.76-43.27S390.88,41.52,386.71,42.4Z" style="fill:#ebebeb"></path><path d="M79.8,38.92s5.12,41.53,11,41.68c7.52.18,35.9-32.53,35.9-32.53S83.94,39.86,79.8,38.92Z" style="fill:#ebebeb"></path><path d="M478.23,17.41l-1.12.41L473.79,19l-5.41,1.91-3.45,1.21-4,1.3-9.33,3-11.2,3.37c-2,.63-4.11,1.2-6.27,1.8l-6.7,1.85c-1.15.32-2.31.65-3.5,1l-3.62.92-7.52,1.91a704.84,704.84,0,0,1-73.45,13.92c-14,1.83-28.74,3.41-44.08,4.56S264,57.48,247.7,57.61H235.53l-12-.25-3-.06-3-.13-5.88-.24-5.84-.24-5.78-.36c-3.83-.26-7.64-.44-11.4-.76l-11.16-.94c-3.68-.32-7.3-.76-10.9-1.12L161.28,53,156,52.28c-14-1.66-27.18-3.91-39.48-6.09-12.25-2.36-23.62-4.74-33.88-7.3L75.13,37c-2.45-.59-4.79-1.28-7.09-1.89-4.58-1.25-8.92-2.39-12.91-3.63S47.38,29.24,44,28.15l-9.29-3c-1.39-.46-2.72-.87-3.94-1.31l-3.43-1.22L22,20.66l-3.3-1.18-1.12-.42s.39.12,1.14.38L22,20.59l5.39,1.88,3.43,1.2c1.23.43,2.56.83,3.95,1.29l9.3,3C47.47,29,51.22,30.1,55.22,31.3s8.33,2.35,12.91,3.6c2.3.6,4.64,1.29,7.09,1.87l7.51,1.84c10.26,2.53,21.63,4.89,33.88,7.24,12.3,2.17,25.47,4.4,39.46,6l5.27.67,5.35.57c3.59.36,7.22.79,10.9,1.11l11.15.93c3.75.33,7.56.5,11.39.75l5.77.36,5.84.24,5.88.25,2.95.12,3,.06,12,.25H247.7c16.3-.13,32.22-.79,47.55-1.85s30.07-2.72,44.06-4.53A709.71,709.71,0,0,0,412.73,37l7.52-1.89,3.62-.91,3.5-1,6.7-1.84c2.16-.6,4.27-1.16,6.27-1.78l11.21-3.34,9.35-3,4-1.28,3.46-1.19,5.42-1.87,3.34-1.15Z" style="fill:#455a64"></path><path d="M58.48,33.37c-1.25-.36-2.47-.72-3.67-1.1L50.7,31.05c-2.48-.74-4.84-1.44-7.05-2.15L32.89,25.38c-.87-.28-1.7-.55-2.5-.83L18.3,20.22l-1.15-.43.71-1.48,1.17.38,12.14,4.24c.78.27,1.6.53,2.45.8l10.77,3.48c2.17.68,4.48,1.36,6.9,2.08l4.24,1.25c3.1,1,6.4,1.84,9.9,2.78l3,.81,2.47.67c1.5.41,3,.82,4.58,1.2L83,37.84c9.29,2.29,20,4.59,33.83,7.23,11.57,2,25.12,4.35,39.38,6l10.61,1.23,3.82.4c2.33.25,4.68.5,7.05.71l11.15.93c2.42.21,4.85.36,7.3.5,1.36.08,2.71.16,4.08.26l11.58.59,11.78.43,12,.24H247.7c15.61-.12,31.59-.75,47.48-1.85,14.21-1.06,29-2.58,44-4.53a713.84,713.84,0,0,0,73.31-13.8l16.62-4.3,5.57-1.53c1.85-.5,3.64-1,5.36-1.52l11.23-3.35L468,20.05l8.76-3,1.17-.39.69,1.49-1.15.42-16.17,5.61-9.34,3-11.22,3.38c-1.74.54-3.56,1-5.44,1.56l-8.77,2.43c-.76.21-1.52.43-2.29.63L413.08,38A711.72,711.72,0,0,1,339.51,52c-15,2-29.89,3.5-44.15,4.57-15.94,1.11-32,1.74-47.66,1.87H235.52l-29.7-.92-5.8-.36c-1.38-.1-2.74-.18-4.1-.26-2.46-.15-4.9-.29-7.33-.51l-11.15-.93c-2.41-.22-4.78-.47-7.14-.73l-3.78-.4-10.66-1.24c-14.36-1.7-27.93-4-39.53-6.09-13.82-2.67-24.6-5-33.95-7.32l-7.52-1.85c-1.59-.38-3.15-.81-4.68-1.23l-2.42-.66-2.94-.8C62.63,34.52,60.52,34,58.48,33.37Z" style="fill:#e0e0e0"></path><rect x="23.15" y="257.59" width="56.57" height="58.97" style="fill:#e0e0e0"></rect><rect x="19.32" y="257.59" width="56.57" height="58.97" style="fill:#fafafa"></rect><path d="M75.91,316.58H19.3v-59H75.91Zm-56.57,0H75.87V257.61H19.34Z" style="fill:#e0e0e0"></path><rect x="26.92" y="265.52" width="41.36" height="43.12" style="fill:#fff"></rect><path d="M26.92,308.92a6.38,6.38,0,0,1-1,1.19c-.66.7-1.59,1.64-2.63,2.67s-2,1.93-2.7,2.58a7.13,7.13,0,0,1-1.19,1,5.85,5.85,0,0,1,1-1.18c.66-.7,1.59-1.65,2.64-2.67s2-1.95,2.7-2.6A7.16,7.16,0,0,1,26.92,308.92Z" style="fill:#e0e0e0"></path><path d="M68.28,308.82a6.38,6.38,0,0,1,1.19,1c.7.66,1.64,1.59,2.67,2.63s1.93,2,2.58,2.7a7.13,7.13,0,0,1,1,1.19,5.85,5.85,0,0,1-1.18-1c-.7-.66-1.65-1.59-2.67-2.64s-2-2-2.6-2.7A7.87,7.87,0,0,1,68.28,308.82Z" style="fill:#e0e0e0"></path><path d="M68.17,265.64a6.91,6.91,0,0,1,1-1.19c.66-.7,1.59-1.64,2.63-2.67s2-1.93,2.7-2.58a6.92,6.92,0,0,1,1.2-1,6.67,6.67,0,0,1-1,1.18c-.66.7-1.59,1.65-2.63,2.67s-2,1.95-2.71,2.6A7.32,7.32,0,0,1,68.17,265.64Z" style="fill:#e0e0e0"></path><path d="M26.81,265.74a6.91,6.91,0,0,1-1.19-1c-.69-.66-1.64-1.59-2.66-2.63s-1.94-2-2.59-2.7a6,6,0,0,1-1-1.2,7.64,7.64,0,0,1,1.18,1c.69.66,1.64,1.59,2.67,2.63s1.94,2,2.59,2.71A6.56,6.56,0,0,1,26.81,265.74Z" style="fill:#e0e0e0"></path><path d="M68.17,308.64s0-.08,0-.21,0-.35,0-.6c0-.55,0-1.32,0-2.33,0-2,0-5,0-8.79,0-7.55,0-18.31-.08-31.19l.16.16-41.24,0h0l.19-.18c0,15.83,0,30.63,0,43.12l-.16-.16,29.87.08,8.39,0,2.22,0h0l-2.19,0-8.35,0-30,.08h-.15v-.15c0-12.49,0-27.29,0-43.12v-.18h.19l41.24,0h.16v.16c0,12.92-.06,23.72-.08,31.29,0,3.76,0,6.72,0,8.75,0,1,0,1.77,0,2.3,0,.25,0,.44,0,.58A1.39,1.39,0,0,1,68.17,308.64Z" style="fill:#e0e0e0"></path><path d="M55.17,287.16a6.65,6.65,0,1,1-6.65-6.65A6.64,6.64,0,0,1,55.17,287.16Z" style="fill:#e0e0e0"></path></g><g id="freepik--speech-bubble--inject-37"><path d="M374.81,93.83a34.35,34.35,0,0,0-28.71,53.22l-5,12.59,13-4a34.36,34.36,0,1,0,20.7-61.78Z" style="fill:#fafafa"></path><path d="M383.4,134.55h-4.75a4,4,0,0,1-4.15,4.06,3.83,3.83,0,0,1-3.72-2.46,4.24,4.24,0,0,1,.34-3.85c.8-1.32,2.57-2.53,5.77-2V119.61h-4.7v6.28a9.19,9.19,0,0,0-6.59,9c0,6.95,6.23,8.57,8.9,8.57C376.54,143.43,383.49,142.93,383.4,134.55Z" style="fill:#F43F5E"></path><rect x="372.14" y="112.95" width="4.77" height="4.46" transform="translate(749.04 230.35) rotate(180)" style="fill:#F43F5E"></rect><path d="M409.44,128.19a3.55,3.55,0,0,0,0-.61c0-.43,0-1-.05-1.76,0-.39,0-.83-.06-1.31s-.14-1-.22-1.56-.17-1.17-.26-1.82-.33-1.31-.5-2a32.86,32.86,0,0,0-4.3-9.85,34.77,34.77,0,0,0-26.14-16,35.86,35.86,0,0,0-4.76-.09c-.81,0-1.63,0-2.44.15l-2.46.37A35,35,0,0,0,358.57,97a34.61,34.61,0,0,0-15.28,15.45,33.23,33.23,0,0,0-3.41,11.13,22.44,22.44,0,0,0-.25,3,27.31,27.31,0,0,0-.06,3,37.14,37.14,0,0,0,.76,6,35,35,0,0,0,5,12l0-.36c-1.67,4.14-3.3,8.21-4.89,12.18l-.29.72.75-.21,13-3.58-.32-.06a34.88,34.88,0,0,0,14.88,6.5,31.85,31.85,0,0,0,7.63.48,25.93,25.93,0,0,0,3.66-.35l1.78-.28c.58-.11,1.15-.28,1.72-.42a34.9,34.9,0,0,0,19.82-13.59,33.26,33.26,0,0,0,4.26-8.09l.66-1.82c.15-.6.29-1.18.43-1.73l.4-1.59c.09-.5.15-1,.22-1.45.11-.92.27-1.73.31-2.44s0-1.29.06-1.79,0-.81,0-1.09a2,2,0,0,0,0-.37,1.45,1.45,0,0,0-.05.36c0,.28-.05.64-.09,1.09s-.07,1.09-.12,1.78-.23,1.51-.36,2.42a34.68,34.68,0,0,1-25.7,27.7c-.56.13-1.12.3-1.7.41l-1.75.26a23.6,23.6,0,0,1-3.59.32,31.15,31.15,0,0,1-7.48-.49,34.25,34.25,0,0,1-14.55-6.41l-.15-.11-.17,0-13,3.55.45.52,4.91-12.18.07-.19-.11-.17a34.57,34.57,0,0,1-5.66-17.57,26,26,0,0,1,.06-2.93,20,20,0,0,1,.24-2.9A32.57,32.57,0,0,1,344,112.82a35.79,35.79,0,0,1,6.39-8.94,37,37,0,0,1,8.52-6.22,34.28,34.28,0,0,1,9.49-3.27l2.4-.38c.8-.11,1.6-.1,2.39-.16a38.29,38.29,0,0,1,4.68.07,34.46,34.46,0,0,1,25.83,15.57,33.11,33.11,0,0,1,4.37,9.69c.19.71.37,1.38.53,2s.21,1.24.3,1.8.18,1.07.25,1.54.07.91.1,1.3c.05.74.1,1.32.13,1.76A3.69,3.69,0,0,0,409.44,128.19Z" style="fill:#263238"></path></g><g id="freepik--character-3--inject-37"><path d="M236.73,321.53c-.59,2-3.24,89,12.89,157.71l80.27.18c1.07-46.94,19-119.93-6.95-160.3Z" style="fill:#263238"></path><path d="M317.76,155.46c2.65,9.64,6.66,17.36,10.57,21.24s8.09,8.42,7.95,13.92c-.06,2.16-.78,4.45.17,6.4,1.22,2.52,4.49,3.07,6.94,4.45A11.62,11.62,0,0,1,348.88,212a16.87,16.87,0,0,1-5.16,11c-3,3.06-7.86,5.2-11.64,3.11-2.28-1.26-3.58-3.72-4.73-6.06q-8.93-18.17-16.16-37.1" style="fill:#263238"></path><path d="M293.4,114.19a24.83,24.83,0,0,0-43.28,16.88c.07,6.45,2.59,13.22,0,19.14-1.8,4.2-6,7.37-6.55,11.9-.67,5.25,3.83,10,3.59,15.31-.15,3.46-2.32,6.51-4.81,8.91s-5.39,4.37-7.68,7c-6.35,7.22-6.75,18.62-2,26.94s14.07,13.56,23.61,14.69,19.28-1.5,27.73-6.09c5.5-3,10.67-6.92,13.94-12.26s4.4-12.26,1.81-18" style="fill:#263238"></path><path d="M263.12,110.3a32.63,32.63,0,0,1,4.27.2,56.17,56.17,0,0,1,9.95,2.78,28.24,28.24,0,0,0,10.25,1.81,12.88,12.88,0,0,0,3.12-.54,4.84,4.84,0,0,0,1.08-.44,21.35,21.35,0,0,1-4.21.64,30.14,30.14,0,0,1-10.09-1.93,49,49,0,0,0-10.06-2.66,17.26,17.26,0,0,0-3.17,0A4.09,4.09,0,0,0,263.12,110.3Z" style="fill:#455a64"></path><path d="M343.9,229.42a28.06,28.06,0,0,0-.49-3.68,31.16,31.16,0,0,0-18.59-22.31l-24.15-10.19-27.6.71s-20.51,9.37-24.64,14.25c-.31.36-3.06,3.08-3.24,4.14L224.42,274l-26.55,16.55,7.28,9.28,39.14-3.71,4.74-7.71c-2.59,5.81-12.92,29.38-12.92,36.6,0,0,60.41,12.93,84.46,10.51,10.58-1.07,13.09-2.06,13.09-2.06L326.6,307c5.85-.4,11.83-4,14.23-9C345,289.33,344.65,241.06,343.9,229.42Z" style="fill:#F43F5E"></path><polygon points="155.34 238.61 151.18 238.61 156.88 292.42 206.08 289.04 200.53 242.71 155.34 238.61" style="fill:#e0e0e0"></polygon><polygon points="155.34 235.95 159.69 290.53 256.83 287.4 244.86 235.95 201.19 240.17 155.34 235.95" style="fill:#fafafa"></polygon><path d="M155.34,236l.78.06,2.35.2,9.1.78,33.64,3h0l43.67-4.26.21,0,0,.2c3.69,15.8,7.74,33.19,12,51.45l.07.31h-.32l-4.58.14-92.55,2.92h-.2v-.2c-1.29-16.76-2.34-30.42-3.08-39.91-.35-4.71-.63-8.38-.81-10.9q-.14-1.84-.21-2.82c0-.64,0-1,0-1s0,.35.09,1,.15,1.62.25,2.86c.22,2.53.53,6.21.93,10.94.78,9.46,1.9,23.07,3.28,39.76l-.21-.18,92.55-3,4.59-.14-.25.31c-4.24-18.25-8.27-35.64-11.94-51.45l.25.18-43.67,4.16h0l-33.49-3.18-9.13-.88-2.39-.24Z" style="fill:#263238"></path><path d="M209.11,288.28a1.9,1.9,0,0,1-.16-.47c-.09-.37-.21-.82-.34-1.36-.29-1.19-.68-2.91-1.14-5-.93-4.27-2.09-10.18-3.19-16.75s-1.91-12.54-2.42-16.87c-.25-2.17-.44-3.92-.55-5.14-.05-.56-.09-1-.12-1.4a1.53,1.53,0,0,1,0-.49,2.7,2.7,0,0,1,.11.48c0,.38.12.83.21,1.39.18,1.28.42,3,.72,5.11.6,4.32,1.48,10.28,2.57,16.84s2.2,12.48,3,16.76c.4,2.08.73,3.79,1,5.06.1.56.19,1,.25,1.39A1.94,1.94,0,0,1,209.11,288.28Z" style="fill:#263238"></path><path d="M183.61,254.55l.94,19-4.4.22-.77-15.5-3.81.19L175.4,255Z" style="fill:#F43F5E"></path><path d="M236.25,267.83l.36,3.57-14.33,1.44L222,270l6.62-7.64c1.52-1.77,1.72-2.77,1.63-3.7-.15-1.48-1.27-2.25-3.27-2.05a4.71,4.71,0,0,0-3.74,2.29l-3.4-1.73a8.84,8.84,0,0,1,7.18-4.28c4.22-.43,7.26,1.46,7.6,4.9.19,1.84-.16,3.57-2.57,6.3l-3.94,4.56Z" style="fill:#F43F5E"></path><path d="M195.66,301.3l-9-6.6.49-15a5,5,0,0,1,3.9,4.24c.37,3.52.68,6.86.68,6.86l2.83.85-.39-1.95,6.88-9.8s2.61,1.93,1.52,4.47c1.25-1.22,3.23-.21,3,.92l.48-2.67s3.13-.93,3,2.24a20.27,20.27,0,0,1-.37,3.78l10.93,0s-3.16,5.34-5,6.79-18.43,5.95-18.43,5.95" style="fill:#ffbe9d"></path><path d="M196.49,298.42a17,17,0,0,1-2.31-8.62c.16,0,.45,2,1.09,4.33S196.63,298.35,196.49,298.42Z" style="fill:#eb996e"></path><path d="M200.13,296.1a35.69,35.69,0,0,1-1.09-5.92v-.09l0-.08.17-.29a38.94,38.94,0,0,1,3.36-5.39,40,40,0,0,1-2.91,5.65l-.17.29,0-.16A36.38,36.38,0,0,1,200.13,296.1Z" style="fill:#eb996e"></path><path d="M204.59,294.37a15.24,15.24,0,0,1-.43-3.56v-.06c.13-.57.25-1.16.39-1.77a28,28,0,0,1,1.43-5.19,28.48,28.48,0,0,1-.93,5.31l-.41,1.75v-.06A16.24,16.24,0,0,1,204.59,294.37Z" style="fill:#eb996e"></path><path d="M305.64,122.44l0,4.91,1,73.44c.12,8.52-7.11,15.42-16.24,15.48h0c-9.22.06-16.91-6.87-17.17-15.48-.28-9-.73-18.55-.73-18.55s-11.7-1.61-14.53-16.73c-1.41-7.52-1.37-19.92-1-30.06A16,16,0,0,1,274.32,120Z" style="fill:#ffbe9d"></path><path d="M262.73,146.41a2,2,0,0,0,1.93,1.92,1.86,1.86,0,0,0,2-1.81,2,2,0,0,0-1.93-1.92A1.85,1.85,0,0,0,262.73,146.41Z" style="fill:#263238"></path><path d="M259.9,141.82c.25.24,1.7-.89,3.79-.94s3.66,1,3.88.69-.15-.57-.83-1a5.34,5.34,0,0,0-3.12-.87,5.14,5.14,0,0,0-3,1.07C260,141.24,259.78,141.7,259.9,141.82Z" style="fill:#263238"></path><path d="M283.4,146.41a2,2,0,0,0,1.93,1.92,1.86,1.86,0,0,0,2-1.81,2,2,0,0,0-1.93-1.92A1.86,1.86,0,0,0,283.4,146.41Z" style="fill:#263238"></path><path d="M280.52,141.64c.25.25,1.7-.89,3.79-.94s3.66,1,3.88.69-.14-.57-.83-1a5.34,5.34,0,0,0-3.12-.86,5.14,5.14,0,0,0-3,1.06C280.61,141.06,280.4,141.53,280.52,141.64Z" style="fill:#263238"></path><path d="M273.34,157.4a13.68,13.68,0,0,0-3.42-.52c-.54,0-1.05-.14-1.15-.5a2.73,2.73,0,0,1,.31-1.6l1.48-4.12c2-5.86,3.49-10.68,3.26-10.76s-2.08,4.61-4.12,10.47l-1.41,4.15a3.16,3.16,0,0,0-.22,2.11,1.35,1.35,0,0,0,.91.75,3.46,3.46,0,0,0,.91.11A14.56,14.56,0,0,0,273.34,157.4Z" style="fill:#263238"></path><path d="M272.58,182.24a38.66,38.66,0,0,0,20.19-6s-4.65,10.57-19.89,9.57Z" style="fill:#eb996e"></path><path d="M274.37,162.42a3.77,3.77,0,0,1,3.34-1.49,3.41,3.41,0,0,1,2.42,1.21,2.19,2.19,0,0,1,.24,2.49,2.54,2.54,0,0,1-2.73.77,7.92,7.92,0,0,1-2.73-1.52,2.49,2.49,0,0,1-.61-.6.71.71,0,0,1,0-.79" style="fill:#eb996e"></path><path d="M279.55,158.68c-.34,0-.28,2.26-2.19,3.93s-4.33,1.49-4.34,1.8c0,.15.55.43,1.58.43a5.69,5.69,0,0,0,3.63-1.38,4.92,4.92,0,0,0,1.68-3.29C280,159.21,279.71,158.66,279.55,158.68Z" style="fill:#263238"></path><path d="M279.75,133.44c.22.56,2.31.23,4.78.46s4.47.85,4.79.33c.13-.25-.23-.78-1-1.31a8.36,8.36,0,0,0-7.29-.6C280.1,132.71,279.66,133.17,279.75,133.44Z" style="fill:#263238"></path><path d="M260.5,135.73c.39.46,1.82-.07,3.55-.14s3.22.23,3.54-.28c.15-.24-.1-.72-.75-1.15a4.94,4.94,0,0,0-2.91-.7,4.89,4.89,0,0,0-2.81,1C260.52,135,260.34,135.5,260.5,135.73Z" style="fill:#263238"></path><path d="M286.54,117.63c-4.06,5.4.16,13,4.84,17.92s10.38,10.53,9.1,17.16c-1.48,7.69-12,12.61-10.43,20.28.57,2.8,2.78,5.19,2.79,8,0,5.16-6.66,7.66-8.58,12.45-2.63,6.56,4.61,13.1,4.72,20.17.06,4-2.22,7.76-2.34,11.77-.25,8.22,9.48,14.24,17.45,12.22s13.43-9.8,15.17-17.84-.9-19.34-2.19-27.46l13.81,3.2c2.58-2.45-.94-5.06-1.52-8.57-1.45-8.79-7.23-16.23-10-24.71-2.41-7.41-2.42-15.34-3.47-23.06s-3.45-15.76-9.34-20.85-16.09-5.72-20.86.44" style="fill:#263238"></path><path d="M295.49,258.43l-4.2-5.71L297,240l2-29.79s-4.14-1.09-4.56,3.59c-.25,2.75-.47,5.21-.47,5.21l-4.7-1.51-6.69,2s.3,3.4,3,2.73a16.89,16.89,0,0,1,4.87-.5l2.56,3.76v1.35l-3.4-2.43h-6.72L278.73,228s1.41,3.33,3.59,2.32c0,0-3.63,9.82-4,11.67,0,0-3.7,9.57,0,15.11A62.89,62.89,0,0,0,287,267.17Z" style="fill:#ffbe9d"></path><path d="M297.17,229.33a2.68,2.68,0,0,0,.28-1.49,18.69,18.69,0,0,0-1.46-3.52,29.88,29.88,0,0,1-2-5.13,29.9,29.9,0,0,1,2.51,4.91c.3.68.59,1.33.86,2a4.73,4.73,0,0,1,.49,1.75,2,2,0,0,1-.31,1.2C297.34,229.27,297.19,229.35,297.17,229.33Z" style="fill:#eb996e"></path><path d="M295.42,228.56a12.57,12.57,0,0,1-3.08-1.86c-1.62-1.15-2.85-2.22-2.73-2.36a18.79,18.79,0,0,1,3,1.94A12.77,12.77,0,0,1,295.42,228.56Z" style="fill:#eb996e"></path><path d="M292.41,234.18a5.15,5.15,0,0,1-1.41-1.59,11.27,11.27,0,0,1-1.1-2,13,13,0,0,1-.47-1.28.6.6,0,0,0-.29-.41,2.54,2.54,0,0,0-.63-.13c-1.37-.18-2.67-.41-3.71-.51h.07a4,4,0,0,0-1,.81c-.29.3-.54.56-.76.76-.44.42-.78.58-.8.53s.24-.24.61-.7l.69-.83a3.62,3.62,0,0,1,1.12-1h.07c1.13.06,2.39.26,3.77.44a2.6,2.6,0,0,1,.79.18,1.15,1.15,0,0,1,.55.7c.14.47.26.87.42,1.27a13.69,13.69,0,0,0,1,2C292,233.5,292.47,234.12,292.41,234.18Z" style="fill:#eb996e"></path><path d="M286.16,235a10.81,10.81,0,0,1,.4-3.29,10.2,10.2,0,0,1,.92-3.19,10.67,10.67,0,0,1-.41,3.29A10.45,10.45,0,0,1,286.16,235Z" style="fill:#eb996e"></path><path d="M291.22,240.62a1.64,1.64,0,0,0-.13-1,1.77,1.77,0,0,0-.82-.74,2.14,2.14,0,0,0-1.44,0,6.49,6.49,0,0,0-1.65.88,6.8,6.8,0,0,1-2,1,2.33,2.33,0,0,1-2.47-.79,1.71,1.71,0,0,1-.18-1.46,3.72,3.72,0,0,1,.73-1.23,22.45,22.45,0,0,1,3.77-3.48,4.57,4.57,0,0,1,2.14-.87,3.36,3.36,0,0,1,2,.46,6.14,6.14,0,0,1,2,2,3.2,3.2,0,0,1,.51.9,4.8,4.8,0,0,1-.67-.78,6.74,6.74,0,0,0-2-1.8,3.09,3.09,0,0,0-1.75-.35,4.22,4.22,0,0,0-1.91.83,24.07,24.07,0,0,0-3.64,3.43c-.57.64-.94,1.47-.53,2.07a1.89,1.89,0,0,0,1.94.61c1.41-.38,2.45-1.53,3.69-1.81a2.36,2.36,0,0,1,1.67.1,1.9,1.9,0,0,1,.87.92C291.54,240.27,291.22,240.65,291.22,240.62Z" style="fill:#eb996e"></path><path d="M335,302.86a7.13,7.13,0,0,1-.91,1,11.16,11.16,0,0,1-3.19,2.05,15,15,0,0,1-5.89,1.21,19,19,0,0,1-7.77-1.67,36.63,36.63,0,0,1-8.18-5.12c-2.71-2.18-5.53-4.57-8.43-7.17a77.6,77.6,0,0,1-8.48-8.82,84.9,84.9,0,0,1-7.34-10.89c-.47-.83-.93-1.66-1.4-2.47l-.09-.17.14-.14,15.34-15.82.13-.14.17.1c10,6.2,18.44,11.73,24.42,15.54l7,4.46,1.85,1.19.48.31.15.12s-.06,0-.18-.08l-.49-.28-1.89-1.13c-1.65-1-4-2.46-7.06-4.34-6-3.75-14.46-9.21-24.52-15.38l.3,0L283.87,271l0-.31c.46.82.93,1.64,1.39,2.47A85,85,0,0,0,292.59,284a76.64,76.64,0,0,0,8.41,8.78c5.81,5.12,11,10,16.43,12.31a18.75,18.75,0,0,0,7.62,1.72,15.18,15.18,0,0,0,5.81-1.1,11.61,11.61,0,0,0,3.2-1.95C334.71,303.19,335,302.84,335,302.86Z" style="fill:#263238"></path><path d="M318.54,239.46a6,6,0,0,1,0,1.07c0,.8-.05,1.77-.08,2.9-.09,2.59-.21,5.91-.34,9.59s-.29,7.13-.43,9.58l-.18,2.9a4.29,4.29,0,0,1-.14,1.06,3.77,3.77,0,0,1-.06-1.07c0-.69,0-1.68,0-2.91,0-2.45.14-5.84.28-9.58s.32-7.13.49-9.58A19,19,0,0,1,318.54,239.46Z" style="fill:#263238"></path><path d="M331.2,213.14c0,.09-1.08.46-2.69,1.41a18.41,18.41,0,0,0-2.66,1.9,18.92,18.92,0,0,0-4.79,6.33,17.9,17.9,0,0,0-1.11,3.07c-.48,1.81-.53,3-.63,3a2.2,2.2,0,0,1,0-.82,12.28,12.28,0,0,1,.3-2.23,16.44,16.44,0,0,1,1-3.19,17.69,17.69,0,0,1,4.92-6.49,16.24,16.24,0,0,1,2.79-1.86,12.22,12.22,0,0,1,2.07-.89A2.7,2.7,0,0,1,331.2,213.14Z" style="fill:#263238"></path><path d="M253.15,268.86a10.79,10.79,0,0,1-.72-1.58c-.43-1-1.05-2.53-1.73-4.41-1.34-3.74-3.17-9.09-3.19-15.27a27.05,27.05,0,0,1,.37-4.47,40.29,40.29,0,0,1,1-4.06c.74-2.54,1.44-4.8,1.82-6.75a17.91,17.91,0,0,0,.37-4.67c-.06-1.1-.21-1.71-.15-1.72a2.21,2.21,0,0,1,.13.43,8.41,8.41,0,0,1,.22,1.28,16.69,16.69,0,0,1-.2,4.74c-.34,2-1,4.28-1.73,6.82-.34,1.27-.69,2.61-.93,4a27.29,27.29,0,0,0-.35,4.39c0,6.07,1.77,11.39,3,15.15.63,1.89,1.2,3.41,1.57,4.46A10.64,10.64,0,0,1,253.15,268.86Z" style="fill:#263238"></path><path d="M302.11,309.49a1.6,1.6,0,0,1-.45.2l-1.3.48c-1.13.41-2.8.93-4.88,1.5s-4.59,1.14-7.4,1.65-5.92.88-9.21,1.11-6.43.22-9.28.12-5.41-.36-7.55-.66-3.86-.58-5-.84l-1.35-.3a2,2,0,0,1-.47-.14,1.53,1.53,0,0,1,.49,0l1.37.21c1.19.2,2.91.44,5,.67s4.69.44,7.53.55,6,.05,9.23-.16,6.36-.62,9.16-1.07,5.31-1,7.39-1.53,3.76-1,4.91-1.34l1.33-.38A1.69,1.69,0,0,1,302.11,309.49Z" style="fill:#263238"></path><path d="M249.62,287.08a6.29,6.29,0,0,1-.42,1.53c-.33,1-.85,2.35-1.49,4.05-1.3,3.41-3.13,8.09-5.06,13.3s-3.59,10-4.71,13.42l-1.31,4.11a9.33,9.33,0,0,1-.52,1.5,9.24,9.24,0,0,1,.33-1.55c.23-1,.63-2.41,1.14-4.17,1-3.49,2.64-8.27,4.58-13.49s3.82-9.88,5.2-13.26l1.65-4C249.4,287.6,249.59,287.07,249.62,287.08Z" style="fill:#263238"></path><path d="M319.59,479.05a1.82,1.82,0,0,1,0-.37c0-.27,0-.62,0-1.08,0-1-.06-2.36-.1-4.14-.06-3.6-.1-8.8-.09-15.24,0-12.87.18-30.64,0-50.27s-.8-37.4-2-50.21c-.32-3.2-.54-6.1-.91-8.62q-.24-1.9-.45-3.54c-.07-.54-.13-1.06-.19-1.55s-.17-1-.25-1.4c-.29-1.75-.52-3.12-.69-4.09-.07-.44-.12-.8-.16-1.06a1.47,1.47,0,0,1,0-.37,1.8,1.8,0,0,1,.09.36l.22,1c.18,1,.45,2.33.78,4.07.09.45.18.91.27,1.4s.14,1,.22,1.56c.15,1.09.31,2.26.49,3.53.4,2.53.65,5.43,1,8.63,1.29,12.81,2,30.6,2.15,50.24s-.08,37.41-.17,50.27c0,6.41-.06,11.61-.07,15.24v4.14c0,.45,0,.81,0,1.08A1.53,1.53,0,0,1,319.59,479.05Z" style="fill:#455a64"></path><path d="M308.4,121a6.25,6.25,0,0,1,3.59-6.42,8.5,8.5,0,0,1,7.6.49,10.31,10.31,0,0,1,1.83,16.76,7.33,7.33,0,0,1-5.1,2,15.65,15.65,0,0,1-4.7-1.47c-1.55-.59-3.32-1-4.81-.26" style="fill:#263238"></path><path d="M315.22,133.82a43.19,43.19,0,0,0-2.76-7.44,41.86,41.86,0,0,0-4.56-6.49,7.53,7.53,0,0,1,1.75,1.58,22.49,22.49,0,0,1,5.26,10A7.75,7.75,0,0,1,315.22,133.82Z" style="fill:#F43F5E"></path><path d="M312.75,127.6a6.41,6.41,0,0,1-1.1.74,20.72,20.72,0,0,1-3.3,1.5,23.63,23.63,0,0,1-11.84,1,22.5,22.5,0,0,1-6.28-2.06,10.34,10.34,0,0,1-4.09-3.51,6.55,6.55,0,0,1-1.07-3.48,4,4,0,0,1,.1-1c.05-.22.09-.33.11-.33s-.07.48,0,1.31a6.71,6.71,0,0,0,1.18,3.29c1.64,2.54,5.65,4.46,10.14,5.26a24.67,24.67,0,0,0,11.64-.84A40.79,40.79,0,0,0,312.75,127.6Z" style="fill:#455a64"></path><path d="M313.8,133s-.14.25-.46.65a13.08,13.08,0,0,1-1.51,1.53,19.53,19.53,0,0,1-13.1,4.84,12.17,12.17,0,0,1-2.14-.18c-.51-.09-.78-.15-.77-.19s1.12.06,2.91,0a22.08,22.08,0,0,0,6.82-1.33,21.82,21.82,0,0,0,6-3.43C313,133.74,313.73,132.9,313.8,133Z" style="fill:#455a64"></path><path d="M323.25,122a3.36,3.36,0,0,1-.2,1.92,6.65,6.65,0,0,1-7.41,4.61,3.57,3.57,0,0,1-1.81-.67c0-.08.71.21,1.85.3a6.79,6.79,0,0,0,7-4.36C323.13,122.77,323.17,122,323.25,122Z" style="fill:#455a64"></path></g><g id="freepik--Table--inject-37"><polygon points="429.53 442.39 53.45 442.39 52.47 454.37 125.39 454.37 125.39 479.42 132.44 479.42 132.44 454.37 400.05 454.37 400.05 479.53 407.09 479.53 407.09 454.37 429.53 454.37 429.53 442.39" style="fill:#455a64"></polygon></g><g id="freepik--character-2--inject-37"><path d="M224.3,375.63q.62,8.24,1.22,16.46c-4.14.76-8.44,1.23-12.53.25s-8-3.65-9.45-7.6a4.16,4.16,0,0,1-.28-2.38,2,2,0,0,1,1.65-1.55" style="fill:#ffbe9d"></path><path d="M235.39,358.08c.65-2,3.39-3.24,3.41-5.35s-2.87-3.4-3.72-5.45c-1.28-3.09,2.51-6.37,1.63-9.57-1-3.84-7.64-4.25-8.87-8-.51-1.57,0-3.54-1.28-4.67-1.66-1.48-4.56,0-6.65-.89-1.93-.84-2.43-3.41-4.36-4.27s-4.31.58-6.25,1.69c-.58.34-1.31.77-2.06,1.16-3.29-1.08-8.53-.93-10.78.83-2.65,2.06-4.67,4.82-7.62,6.49-2.59,1.48-5.82,2.07-7.89,4.16-3.68,3.72-1.7,9.82-3.58,14.57-.64,1.62-1.73,3.06-2.42,4.66s-.9,3.56.16,5,3.28,2.24,3.32,4-2.19,2.94-2,4.62,2.93,2.26,4.1,3.74c1.53,1.92,0,4.92,1.32,7,1.45,2.21,4.94,1.74,7.63,2.38,4.69,1.11,8.17,6.22,12.93,5.45,1.82-.3,3.39-1.46,5.21-1.75,2.46-.39,4.85.85,7.32,1.15,4.46.55,8.63-1.94,12.33-4.33,1.9-1.22,3.94-2.64,4.43-4.74.45-1.9-.47-4,.55-5.75s3.28-2.14,4.12-3.78C237.69,363.76,234.52,360.79,235.39,358.08Z" style="fill:#263238"></path><path d="M187.82,338.4a1.42,1.42,0,0,1-.14-.38,4.34,4.34,0,0,1-.1-1.15,5.8,5.8,0,0,1,1.77-3.8,10.32,10.32,0,0,1,5.63-2.7,5,5,0,0,1,3.66.82,4,4,0,0,1,1.22,1.66,3,3,0,0,1,0,2.13,2.24,2.24,0,0,1-1.63,1.41,1.65,1.65,0,0,1-1.13-.15,1.52,1.52,0,0,1-.7-.88,2.48,2.48,0,0,1,.36-2,3.42,3.42,0,0,1,1.48-1.2,4.68,4.68,0,0,1,5.71,1.78,6.12,6.12,0,0,1,.87,4.11,5.24,5.24,0,0,1-.24,1.12c-.09.25-.14.37-.16.37s.14-.54.2-1.51a6.17,6.17,0,0,0-1-3.88,4.17,4.17,0,0,0-2.15-1.65,4.24,4.24,0,0,0-3.07.09,3.09,3.09,0,0,0-1.25,1,2,2,0,0,0-.29,1.58,1,1,0,0,0,1.23.67,1.73,1.73,0,0,0,1.26-1.09,3,3,0,0,0-1.08-3.2,4.5,4.5,0,0,0-3.3-.74,10.21,10.21,0,0,0-5.42,2.48,5.75,5.75,0,0,0-1.83,3.56A10.75,10.75,0,0,0,187.82,338.4Z" style="fill:#455a64"></path><path d="M183,357.73a2.55,2.55,0,0,1-.42-1,6.56,6.56,0,0,1,2.25-6.75,6.82,6.82,0,0,1,5.34-1.35l-.3.3a7.37,7.37,0,0,1,0-2.2,7.91,7.91,0,0,1,3.27-5.33,7.63,7.63,0,0,1,8.25-.08,6.26,6.26,0,0,1,.75.58c.15.15.23.23.22.24a11.45,11.45,0,0,1-1.07-.64,7.86,7.86,0,0,0-3.2-.94,7.18,7.18,0,0,0-4.67,1.24,7.52,7.52,0,0,0-3,5,6.71,6.71,0,0,0,0,2.05l.05.36-.35-.07a6.43,6.43,0,0,0-5,1.21,6.14,6.14,0,0,0-2.27,3.5,6.72,6.72,0,0,0-.07,2.84C182.9,357.36,183,357.71,183,357.73Z" style="fill:#455a64"></path><path d="M217.69,330.32c0,.08-.7-.13-1.8-.18a8.18,8.18,0,0,0-7.33,3.65c-.62.91-.86,1.58-.94,1.55a3.77,3.77,0,0,1,.63-1.75,7.71,7.71,0,0,1,7.67-3.82A3.64,3.64,0,0,1,217.69,330.32Z" style="fill:#455a64"></path><path d="M232.18,356.77s.19-.37.46-1a6.81,6.81,0,0,0,.41-3,6.11,6.11,0,0,0-1.82-3.95,6.39,6.39,0,0,0-5-1.65,6.28,6.28,0,0,0-2.41.78l-.53.32.16-.6a4.73,4.73,0,0,0-1-4.17,4.47,4.47,0,0,0-3.14-1.53,5.06,5.06,0,0,0-2.36.43,8.64,8.64,0,0,1-.8.39,2.07,2.07,0,0,1,.72-.56,4.8,4.8,0,0,1,2.45-.59,4.69,4.69,0,0,1,3.46,1.56,5.14,5.14,0,0,1,1.16,4.6l-.38-.29a6.64,6.64,0,0,1,2.62-.86,6.79,6.79,0,0,1,5.38,1.82,6.59,6.59,0,0,1,1.26,7.36,4,4,0,0,1-.44.73C232.26,356.7,232.2,356.78,232.18,356.77Z" style="fill:#455a64"></path><path d="M178.59,449.48s-12.35,2.49-14.2,1.17-8.7-5.8-7.65-11.87,13.72-49.31,16.35-52.48,5.28-6.33,10.55-6.06,39.82,7.64,39.82,7.64,14.24-.79,17.14,1.32,9.5,6.07,9.5,13.45-1.46,58-1.46,58l3.84,18.59h-76l2.12-29.76" style="fill:#F43F5E"></path><path d="M178.59,449.48c-.15,0-1.06-10-2-22.45s-1.65-22.49-1.51-22.5,1.06,10,2,22.46S178.73,449.47,178.59,449.48Z" style="fill:#263238"></path><path d="M250,401.37a3.64,3.64,0,0,1-.79-.1l-2.26-.4-8.29-1.49c-7-1.24-16.69-2.85-27.44-4.36s-20.51-2.6-27.59-3.33l-8.38-.84-2.28-.23a4.22,4.22,0,0,1-.79-.12,4.86,4.86,0,0,1,.8,0l2.29.14c2,.13,4.85.36,8.4.68,7.09.63,16.87,1.68,27.62,3.18s20.45,3.17,27.44,4.51c3.49.67,6.32,1.24,8.26,1.66l2.24.49A6.52,6.52,0,0,1,250,401.37Z" style="fill:#fafafa"></path><path d="M248.64,419.8a3.33,3.33,0,0,1-.75,0l-2.13-.05c-1.86,0-4.54-.17-7.86-.33-6.62-.34-15.77-.94-25.85-1.86s-19.19-2-25.77-2.87c-3.29-.43-5.95-.81-7.78-1.09l-2.11-.34a3.75,3.75,0,0,1-.73-.15,3.84,3.84,0,0,1,.75.05l2.12.24,7.8.93c6.58.78,15.69,1.79,25.77,2.71s19.21,1.58,25.83,2l7.83.5,2.14.15A6.5,6.5,0,0,1,248.64,419.8Z" style="fill:#fafafa"></path><path d="M249.8,437a3.19,3.19,0,0,1-.71.14l-2.06.31c-1.78.26-4.37.57-7.58.9-6.41.65-15.32,1.25-25.16,1.25s-18.75-.59-25.17-1.24c-3.21-.32-5.8-.63-7.58-.89l-2.06-.3a6.61,6.61,0,0,1-.71-.14,3.37,3.37,0,0,1,.73,0l2.06.21c1.79.19,4.39.45,7.6.73,6.41.55,15.3,1.08,25.13,1.08s18.71-.54,25.13-1.1c3.2-.28,5.8-.54,7.59-.74l2.06-.2A4,4,0,0,1,249.8,437Z" style="fill:#fafafa"></path><path d="M248.45,462.44a2.85,2.85,0,0,1-.72.07l-2.06.11-7.58.25c-6.41.18-15.26.35-25,.41s-18.64,0-25-.26c-3.2-.11-5.8-.21-7.58-.34l-2.06-.15a3.5,3.5,0,0,1-.72-.09,5,5,0,0,1,.72,0l2.07,0c1.79.07,4.38.12,7.58.19,6.4.11,15.25.15,25,.09l25-.25,7.59-.09h2.06A4.47,4.47,0,0,1,248.45,462.44Z" style="fill:#fafafa"></path><path d="M176.81,427.46a65,65,0,0,1-8-2.14,65,65,0,0,1-7.83-2.64,65.4,65.4,0,0,1,8,2.14A64.39,64.39,0,0,1,176.81,427.46Z" style="fill:#fafafa"></path></g><g id="freepik--Wall--inject-37"><path d="M478.47,479.42c0,.14-103.06.26-230.17.26s-230.2-.12-230.2-.26,103-.26,230.2-.26S478.47,479.27,478.47,479.42Z" style="fill:#263238"></path></g></svg>